<mxfile host="app.diagrams.net" modified="2023-05-06T07:49:10.251Z" agent="Mozilla/5.0 (Windows NT 10.0; Win64; x64; rv:109.0) Gecko/20100101 Firefox/112.0" version="21.1.6" etag="1YT1A0stX_SVvSH-9YiA" type="github">
  <diagram name="Страница 1" id="X7FsDsJmQm5lpjZRSi2x">
    <mxGraphModel>
      <root>
        <mxCell id="0" />
        <mxCell id="1" parent="0" />
      </root>
    </mxGraphModel>
  </diagram>
</mxfile>
